<svg xmlns="http://www.w3.org/2000/svg"  viewBox="0 0 48 48" width="96px" height="96px"><path d="M 13.5 6 C 9.3754991 6 6 9.3754991 6 13.5 L 6 34.5 C 6 38.624501 9.3754991 42 13.5 42 L 19.851562 42 A 1.50015 1.50015 0 1 0 19.851562 39 L 13.5 39 C 10.996501 39 9 37.003499 9 34.5 L 9 13.5 C 9 10.996501 10.996501 9 13.5 9 L 26.318359 9 A 1.50015 1.50015 0 1 0 26.318359 6 L 13.5 6 z M 32.148438 6 A 1.50015 1.50015 0 1 0 32.148438 9 L 34.5 9 C 37.003499 9 39 10.996501 39 13.5 L 39 34.5 C 39 37.003499 37.003499 39 34.5 39 L 25.765625 39 A 1.50015 1.50015 0 1 0 25.765625 42 L 34.5 42 C 38.624501 42 42 38.624501 42 34.5 L 42 13.5 C 42 9.3754991 38.624501 6 34.5 6 L 32.148438 6 z M 17.972656 13.919922 C 15.096656 13.795922 13.931641 16.023875 13.931641 16.671875 C 13.931641 17.120875 13.318344 22.513656 19.402344 28.597656 C 25.486344 34.681656 30.880125 34.068359 31.328125 34.068359 C 31.976125 34.068359 34.204078 32.904344 34.080078 30.027344 C 34.058078 29.520344 33.773937 29.055391 33.335938 28.775391 C 32.836937 28.455391 32.061734 27.959453 31.052734 27.314453 C 30.131734 26.726453 28.943422 26.684938 27.982422 27.210938 L 27.107422 27.583984 C 26.652422 27.903984 26.069641 27.967906 25.556641 27.753906 C 24.757641 27.419906 23.529906 26.772094 22.378906 25.621094 C 21.227906 24.470094 20.580094 23.242359 20.246094 22.443359 C 20.031094 21.930359 20.096016 21.347578 20.416016 20.892578 L 20.789062 20.017578 C 21.315062 19.057578 21.274547 17.868266 20.685547 16.947266 C 20.039547 15.937266 19.543609 15.163063 19.224609 14.664062 C 18.943609 14.226062 18.478656 13.941922 17.972656 13.919922 z"/></svg>